<?xml version="1.0" encoding="UTF-8" standalone="no"?>
<!-- Created with Inkscape (http://www.inkscape.org/) -->

<svg
   width="100mm"
   height="100mm"
   viewBox="0 0 99.999999 99.999998"
   version="1.1"
   id="svg5"
   xmlns="http://www.w3.org/2000/svg"
   xmlns:svg="http://www.w3.org/2000/svg">
  <defs
     id="defs2" />
  <path
     id="path1225"
     style="fill:#4d8cde;fill-opacity:1;stroke:none;stroke-width:3.2059"
     d="M 65.42616,0.01111495 C 39.773205,-0.07661584 6.4260904,0.35974839 4.7348886,1.1519565 -0.2330895,3.4791413 0.00175211,1.0562449 0.00175211,49.858492 c 0,48.680073 -0.2182065,46.554451 4.98378739,48.693996 3.0860093,1.269339 5.7567545,1.350156 44.6158005,1.360928 42.405758,0.01154 45.313187,-0.04437 48.032651,-1.652059 0.779865,-0.598279 1.357562,-0.945722 1.728411,-1.458432 0.937288,-0.791072 0.39891,-31.287914 0.628937,-46.820457 0,-50.78804548 0.368931,-47.2939941 -5.200621,-49.21218045 C 93.439626,0.30496043 80.817932,0.06375606 65.42616,0.01111495 Z M 10.209434,18.70563 h 39.342782 c 34.333957,0 39.516509,0.007 41.166818,0.730725 1.115137,0.600411 1.558385,0.927949 1.725589,2.451934 l -0.04908,33.680293 V 90.34168 c -0.279907,2.1281 -0.904327,2.577654 -3.644973,2.921596 H 49.732176 c -38.281313,0 -38.67037,0.349148 -41.1176003,-0.532632 C 8.0139153,92.514246 6.8495522,92.298351 6.5644507,90.478123 V 56.05267 21.625912 C 7.2226182,19.732029 8.2288319,18.848104 10.209434,18.70563 Z" />
  <path
     style="fill:#4d8cde;fill-opacity:1;stroke:none;stroke-width:3.2059"
     d="m 27.804642,26.730481 c 1.662035,0 1.700452,0.561515 1.918454,27.738768 0.217424,27.120235 0.259973,27.738769 1.908514,27.738769 1.64639,0 1.686515,-0.544224 1.686515,-23.136972 V 35.934074 l 1.908512,0.238519 1.908515,0.238519 v 24.573944 24.572488 l -5.313022,0.222554 c -3.768219,0.15741 -5.435089,-0.05899 -5.735482,-0.746138 -0.233069,-0.532748 -0.322605,-13.869643 -0.200459,-29.636791 0.217969,-28.106033 0.255232,-28.666691 1.918454,-28.666691 z"
     id="path1420" />
  <path
     style="fill:#4d8cde;fill-opacity:1;stroke:none;stroke-width:3.2059"
     d="M 72.679558,26.599583 C 75.256622,27.467766 73.976291,28.9967 61.3577,40.125723 L 48.683978,51.304424 62.222495,67.964849 C 72.945853,81.160855 75.560452,84.839336 74.793501,85.65064 72.826875,87.730969 74.283663,89.197407 56.397551,67.1431 L 45.690329,53.939839 43.902753,55.414625 c -2.219702,1.83065 -4.647032,1.916786 -4.647032,0.164366 0,-2.01103 31.753402,-29.542118 33.423837,-28.979391 z"
     id="path1418" />
</svg>
